HIERARCHY
ROOT Hips
{
	OFFSET 0.000000 0.000000 0.000000
	CHANNELS 6 Xposition Yposition Zposition Zrotation Yrotation Xrotation 
	JOINT LHipJoint
	{
		OFFSET 0.000000 0.000000 0.000000
		CHANNELS 3 Zrotation Yrotation Xrotation
		JOINT LeftUpLeg
		{
			OFFSET 1.363060 -1.794630 0.839290
			CHANNELS 3 Zrotation Yrotation Xrotation
			JOINT LeftLeg
			{
				OFFSET 2.448110 -6.726130 0.000000
				CHANNELS 3 Zrotation Yrotation Xrotation
				JOINT LeftFoot
				{
					OFFSET 2.562200 -7.039590 0.000000
					CHANNELS 3 Zrotation Yrotation Xrotation
					JOINT LeftToeBase
					{
						OFFSET 0.157640 -0.433110 2.322550
						CHANNELS 3 Zrotation Yrotation Xrotation
						End Site
						{
							OFFSET 0.000000 0.000000 0.000000
						}
					}
				}
			}
		}
	}
	JOINT RHipJoint
	{
		OFFSET 0.000000 0.000000 0.000000
		CHANNELS 3 Zrotation Yrotation Xrotation
		JOINT RightUpLeg
		{
			OFFSET -1.305520 -1.794630 0.839290
			CHANNELS 3 Zrotation Yrotation Xrotation
			JOINT RightLeg
			{
				OFFSET -2.542530 -6.985550 0.000000
				CHANNELS 3 Zrotation Yrotation Xrotation
				JOINT RightFoot
				{
					OFFSET -2.568260 -7.056230 0.000000
					CHANNELS 3 Zrotation Yrotation Xrotation
					JOINT RightToeBase
					{
						OFFSET -0.164730 -0.452590 2.363150
						CHANNELS 3 Zrotation Yrotation Xrotation
						End Site
						{
							OFFSET 0.000000 0.000000 0.000000
						}
					}
				}
			}
		}
	}
	JOINT LowerBack
	{
		OFFSET 0.000000 0.000000 0.000000
		CHANNELS 3 Zrotation Yrotation Xrotation
		JOINT Spine
		{
			OFFSET 0.028270 2.035590 -0.193380
			CHANNELS 3 Zrotation Yrotation Xrotation
			JOINT Spine1
			{
				OFFSET 0.056720 2.048850 -0.042750
				CHANNELS 3 Zrotation Yrotation Xrotation
				JOINT Neck
				{
					OFFSET 0.000000 0.000000 0.000000
					CHANNELS 3 Zrotation Yrotation Xrotation
					JOINT Neck1
					{
						OFFSET -0.054170 1.746240 0.172020
						CHANNELS 3 Zrotation Yrotation Xrotation
						JOINT Head
						{
							OFFSET 0.104070 1.761360 -0.123970
							CHANNELS 3 Zrotation Yrotation Xrotation
							End Site
							{
								OFFSET 0.000000 0.000000 0.000000
							}
						}
					}
				}
				JOINT LeftShoulder
				{
					OFFSET 0.000000 0.000000 0.000000
					CHANNELS 3 Zrotation Yrotation Xrotation
					JOINT LeftArm
					{
						OFFSET 3.362410 1.200890 -0.311210
						CHANNELS 3 Zrotation Yrotation Xrotation
						JOINT LeftForeArm
						{
							OFFSET 4.983000 -0.000000 -0.000000
							CHANNELS 3 Zrotation Yrotation Xrotation
							JOINT LeftHand
							{
								OFFSET 3.483560 -0.000000 -0.000000
								CHANNELS 3 Zrotation Yrotation Xrotation
								JOINT LeftFingerBase
								{
									OFFSET 0.000000 0.000000 0.000000
									CHANNELS 3 Zrotation Yrotation Xrotation
									JOINT LeftHandIndex1
									{
										OFFSET 0.715260 -0.000000 -0.000000
										CHANNELS 3 Zrotation Yrotation Xrotation
										End Site
										{
											OFFSET 0.000000 0.000000 0.000000
										}
									}
								}
								JOINT LThumb
								{
									OFFSET 0.000000 0.000000 0.000000
									CHANNELS 3 Zrotation Yrotation Xrotation
									End Site
									{
										OFFSET 0.000000 0.000000 0.000000
									}
								}
							}
						}
					}
				}
				JOINT RightShoulder
				{
					OFFSET 0.000000 0.000000 0.000000
					CHANNELS 3 Zrotation Yrotation Xrotation
					JOINT RightArm
					{
						OFFSET -3.136600 1.374050 -0.404650
						CHANNELS 3 Zrotation Yrotation Xrotation
						JOINT RightForeArm
						{
							OFFSET -5.241900 -0.000000 -0.000000
							CHANNELS 3 Zrotation Yrotation Xrotation
							JOINT RightHand
							{
								OFFSET -3.444170 -0.000000 -0.000000
								CHANNELS 3 Zrotation Yrotation Xrotation
								JOINT RightFingerBase
								{
									OFFSET 0.000000 0.000000 0.000000
									CHANNELS 3 Zrotation Yrotation Xrotation
									JOINT RightHandIndex1
									{
										OFFSET -0.622530 -0.000000 -0.000000
										CHANNELS 3 Zrotation Yrotation Xrotation
										End Site
										{
											OFFSET 0.000000 0.000000 0.000000
										}
									}
								}
								JOINT RThumb
								{
									OFFSET 0.000000 0.000000 0.000000
									CHANNELS 3 Zrotation Yrotation Xrotation
									End Site
									{
										OFFSET 0.000000 0.000000 0.000000
									}
								}
							}
						}
					}
				}
			}
		}
	}
}
MOTION
Frames: 6
Frame Time: 0.008333
8.790658 18.672524 0.691461 -1.158775 -3.108042 5.912439 -1.913576 -2.564832 -1.851384 -11.827505 2.829573 -28.356081 5.359312 17.038837 48.170238 -1.038555 5.640981 10.774467 0.578700 -4.871300 -13.541700 3.450944 1.554777 1.225307 17.404683 3.401465 -16.420937 2.428020 -9.010645 26.200415 -7.060075 14.174473 16.688524 -0.110100 -2.139200 5.890600 4.405214 2.673389 2.762440 1.192445 3.699361 -3.735047 -2.571552 1.830733 -2.417318 -2.907260 -1.948341 -7.122744 5.287139 -2.786425 11.855055 1.015800 -1.163400 5.778000 2.129302 -9.348863 -0.001942 -88.746339 3.188015 27.691082 8.333485 -14.606825 -2.211291 -1.357255 1.701272 -5.657613 25.918483 -13.140142 -7.562500 -7.125000 0.000000 0.000000 -0.311800 13.199100 0.232400 -3.508500 9.806459 0.781048 85.593250 1.044267 15.572314 -18.362025 29.959285 -9.306594 0.664141 -2.368289 1.877306 169.969300 70.830381 -10.122500 7.125000 0.000000 0.000000 -156.007100 -49.979300 -3.103100 
8.801759 18.675270 0.965321 -1.231756 -3.537833 5.964209 -1.990543 -2.695455 -2.066568 -11.638199 2.762015 -28.928801 4.590985 16.581838 45.848988 -1.095616 5.984551 10.639765 0.436900 -4.241700 -11.757500 3.510427 1.454669 1.504783 17.405165 2.893179 -15.833158 2.468944 -8.828417 25.978405 -7.353184 15.339955 16.816000 -0.160800 -2.583900 7.122400 4.561262 2.819398 2.612750 1.168935 3.863846 -3.717562 -2.688630 1.949766 -2.338862 -3.187260 -1.960000 -6.934125 5.398215 -2.777842 11.856301 1.178100 -1.176000 5.711600 2.058357 -9.226621 0.021881 -89.313590 4.279597 25.249222 7.184742 -13.258325 -1.906102 -1.298238 1.828749 -2.137389 25.770881 -13.137886 -7.551400 -7.125000 0.000000 0.000000 -0.383100 13.165100 0.285800 -3.537198 9.751296 0.792455 84.910700 1.987910 17.164091 -19.912678 31.379103 -10.087721 0.754736 -2.280080 0.148818 169.426587 70.436219 -10.617800 7.125000 0.000000 0.000000 -156.127800 -50.301300 -3.283000 
8.810685 18.699646 1.243988 -1.122165 -4.154855 6.053883 -2.108815 -2.820920 -2.250462 -11.610504 2.789757 -29.424446 3.776253 16.043148 43.373381 -1.211744 6.465721 10.222646 0.426500 -4.191400 -11.615700 3.585732 1.339978 1.819626 17.125453 2.385306 -15.232509 2.566183 -8.553692 25.564403 -7.618675 16.451012 17.513545 -0.269200 -3.337400 9.219400 4.389723 2.977336 2.534933 1.136788 4.042233 -3.734538 -2.695836 2.081230 -2.415150 -3.405135 -1.885512 -6.886907 5.563761 -2.662522 11.923104 1.344200 -1.126000 5.756700 2.021629 -9.100103 0.035445 -89.851913 5.706422 22.524951 6.185329 -12.123275 -1.742581 -1.265769 2.088312 1.643187 27.098572 -14.484329 -8.794800 -7.125000 0.000000 0.000000 0.416200 11.258400 -0.326900 -3.581049 9.716329 0.779532 84.414288 3.051262 18.359249 -21.252806 32.520042 -10.806981 0.827751 -2.211700 -1.051526 169.733868 70.351228 -10.353300 7.125000 0.000000 0.000000 -156.003300 -50.331700 -3.320600 
8.818353 18.721505 1.516590 -1.262269 -4.822568 6.228937 -2.206834 -2.956965 -2.461769 -11.238576 2.883785 -29.998702 2.942912 15.407666 40.652716 -1.382902 7.121553 10.023836 0.509000 -4.573100 -12.694800 3.680361 1.243984 2.112358 17.098575 2.105304 -14.585822 2.696307 -8.252840 25.044724 -7.729490 17.130899 18.273393 -0.390500 -4.012700 11.112400 4.469697 3.170205 2.538761 1.112785 4.281796 -3.765263 -2.853837 2.234167 -2.510621 -3.236762 -1.792113 -7.091945 5.574328 -2.552235 11.943001 1.307200 -1.059000 5.847200 2.033736 -8.982565 0.033955 -90.376093 7.113345 18.981018 5.294177 -11.065362 -1.598053 -1.118083 2.324403 5.628097 27.548597 -16.026833 -9.833600 -7.125000 0.000000 0.000000 0.530000 9.297600 -0.437400 -3.595970 9.692673 0.758952 83.847317 3.917972 19.600946 -22.839596 33.849349 -11.697629 0.897165 -2.131350 -2.636435 169.988530 70.614362 -10.148200 7.125000 0.000000 0.000000 -156.000900 -50.037500 -3.139800 
8.819269 18.738671 1.784957 -1.563423 -5.435137 6.411756 -2.298617 -3.095952 -2.698207 -10.604894 2.876515 -30.455485 2.082428 14.661649 37.694943 -1.503662 7.705878 10.308970 0.670600 -5.236600 -14.584700 3.786156 1.155032 2.365499 17.284649 1.940535 -13.870258 2.799889 -7.986160 24.544725 -7.749111 17.421511 18.610575 -0.393800 -4.029200 11.158800 4.777685 3.409062 2.455750 1.073720 4.582313 -3.739219 -3.209364 2.414316 -2.274174 -2.845628 -1.826110 -7.475887 5.413980 -2.625921 11.907030 1.114600 -1.076600 5.903800 2.031817 -8.852806 0.048339 -90.585240 8.071857 15.096521 4.479105 -10.010629 -1.371356 -0.842634 2.347935 10.165778 25.620460 -15.694964 -8.860400 -7.125000 0.000000 0.000000 -0.744600 10.070200 0.603000 -3.599872 9.636098 0.760534 83.236189 4.818712 20.957695 -24.851531 35.495861 -12.851645 0.946903 -2.030439 -4.430456 169.271295 70.866064 -10.824600 7.125000 0.000000 0.000000 -156.364200 -49.761600 -2.920000 
8.821214 18.749429 2.056757 -1.638959 -5.952812 6.593924 -2.447784 -3.230983 -2.900045 -10.247072 2.894455 -30.780102 1.249931 13.858407 34.724602 -1.778957 8.628062 10.494497 0.980200 -6.302300 -17.664100 3.881733 1.056961 2.628547 17.185191 1.673182 -13.231530 2.901534 -7.703615 24.036857 -7.843847 17.954507 19.113631 -0.421200 -4.165700 11.543200 4.811916 3.574888 2.290072 1.043788 4.769045 -3.718671 -3.405253 2.544645 -2.099252 -2.492289 -1.835212 -7.631769 5.210040 -2.666381 11.828568 0.889400 -1.084200 5.860800 2.042547 -8.729078 0.072145 -90.751933 8.990958 11.085111 3.735532 -9.031151 -1.161526 -0.623387 2.295392 14.971199 23.857572 -14.535497 -7.625600 -7.125000 0.000000 0.000000 -1.817700 11.739600 1.410600 -3.594338 9.584920 0.773245 82.693040 5.929356 22.203419 -26.761267 36.938832 -13.985888 1.002511 -1.943550 -5.717176 169.456223 70.835931 -10.667200 7.125000 0.000000 0.000000 -156.308100 -49.730500 -2.908700 
